<svg id="Layer_1" data-name="Layer 1" xmlns="http://www.w3.org/2000/svg" xmlns:xlink="http://www.w3.org/1999/xlink" viewBox="0 0 48 23.42"><defs><style>.cls-1,.cls-2{fill-rule:evenodd;}.cls-1{fill:url(#linear-gradient);}.cls-2{fill:#fff;}</style><linearGradient id="linear-gradient" x1="24" x2="24" y2="23.42" gradientUnits="userSpaceOnUse"><stop offset="0" stop-color="#00b8f1"/><stop offset="0.02" stop-color="#01b6f0"/><stop offset="0.31" stop-color="#0d90d9"/><stop offset="0.58" stop-color="#1775c8"/><stop offset="0.82" stop-color="#1c65bf"/><stop offset="1" stop-color="#1e5fbb"/></linearGradient></defs><title>sap_logo</title><polyline class="cls-1" points="0 23.42 24.26 23.42 48 0 0 0 0 23.42"/><path class="cls-2" d="M388.44,298h-4.73V309L379.59,298h-4.1L372,307.23c-.37-2.34-2.83-3.15-4.75-3.75-1.28-.41-2.63-1-2.61-1.65s.72-1,2.13-1a7.86,7.86,0,0,1,3.46.92l1.64-2.82a13.08,13.08,0,0,0-5.35-1.25h0a6.52,6.52,0,0,0-4.72,1.71,3.85,3.85,0,0,0-1.13,2.71,3.63,3.63,0,0,0,1.62,3.26,11.3,11.3,0,0,0,3.21,1.45c1.31.4,2.38.75,2.37,1.49a1.09,1.09,0,0,1-.31.73,2.1,2.1,0,0,1-1.52.47,6.63,6.63,0,0,1-3.92-1.1l-1.45,2.86a11,11,0,0,0,5.34,1.4h.25a6.47,6.47,0,0,0,4.06-1.35l.18-.14-.48,1.24h4.3l.72-2.16a7.74,7.74,0,0,0,2.52.4,8,8,0,0,0,2.46-.38l.7,2.14h7V308h1.52c3.69,0,5.88-1.85,5.88-5C395.08,299.55,393,298,388.44,298Zm-10.92,9.48a4.23,4.23,0,0,1-1.51-.26l1.49-4.66h0L379,307.2A4.59,4.59,0,0,1,377.52,307.44Zm11.2-2.67h-1V301h1c1.39,0,2.49.46,2.49,1.85s-1.1,1.91-2.49,1.91" transform="translate(-359.95 -293.56)"/></svg>